M48
; DRILL file {KiCad 7.0.7} date Sat Oct 12 22:05:36 2024
; FORMAT={-:-/ absolute / inch / decimal}
; #@! TF.CreationDate,2024-10-12T22:05:36+05:30
; #@! TF.GenerationSoftware,Kicad,Pcbnew,7.0.7
; #@! TF.FileFunction,MixedPlating,1,2
FMAT,2
INCH
; #@! TA.AperFunction,Plated,PTH,ViaDrill
T1C0.0157
; #@! TA.AperFunction,Plated,PTH,ComponentDrill
T2C0.0315
; #@! TA.AperFunction,Plated,PTH,ComponentDrill
T3C0.0354
; #@! TA.AperFunction,Plated,PTH,ComponentDrill
T4C0.0394
; #@! TA.AperFunction,Plated,PTH,ComponentDrill
T5C0.0433
; #@! TA.AperFunction,Plated,PTH,ComponentDrill
T6C0.0472
; #@! TA.AperFunction,Plated,PTH,ComponentDrill
T7C0.0551
%
G90
G05
T1
X3.7Y-3.7
X3.7Y-3.8
X3.7Y-3.9
X4.1Y-4.1
T2
X3.2Y-1.05
X3.2Y-1.55
X3.3Y-6.25
X3.3Y-6.75
X5.25Y-1.05
X5.25Y-1.55
X5.3Y-6.25
X5.3Y-6.75
T3
X2.8094Y-3.0
X2.9094Y-3.0
X3.1047Y-3.0
X3.2047Y-3.0
X3.4Y-3.0
X3.5Y-3.0
T4
X2.5Y-1.3
X2.5Y-1.4
X2.5Y-1.5
X2.5Y-6.5
X2.5Y-6.6
X2.5Y-6.7
X2.9722Y-4.1998
X2.9722Y-4.2998
X2.9722Y-4.3998
X2.9722Y-4.4998
X2.9722Y-4.5998
X3.4Y-3.5
X3.4Y-4.2
X3.5Y-3.5
X3.5Y-4.2
X3.6Y-3.5
X3.6Y-4.2
X3.7Y-3.5
X3.7Y-4.2
X3.8Y-3.5
X3.8Y-4.2
X3.9Y-3.5
X3.9Y-4.2
X4.0Y-3.5
X4.0Y-4.2
X4.1Y-3.5
X4.1Y-4.2
X4.2Y-3.5
X4.2Y-4.2
X4.3Y-3.5
X4.3Y-4.2
X4.4Y-3.5
X4.4Y-4.2
X4.5Y-3.5
X4.5Y-4.2
X4.6Y-3.5
X4.6Y-4.2
X4.7Y-3.5
X4.7Y-4.2
X4.8Y-3.5
X4.8Y-4.2
X4.9Y-3.5
X4.9Y-4.2
X5.0Y-3.5
X5.0Y-4.2
X5.1Y-3.5
X5.1Y-4.2
X5.2Y-3.5
X5.2Y-4.2
X5.3Y-3.5
X5.3Y-4.2
X6.0Y-1.1006
X6.0Y-1.2006
X6.0Y-1.3006
X6.0278Y-6.4006
X6.0278Y-6.5006
X6.0278Y-6.6006
T5
X2.9Y-1.3
X2.9Y-1.4
X2.9Y-1.5
X2.9Y-6.5
X2.9Y-6.6
X2.9Y-6.7
X5.6Y-1.1
X5.6Y-1.2
X5.6Y-1.3
X5.7Y-6.4
X5.7Y-6.5
X5.7Y-6.6
T6
X3.7Y-5.3
X3.8Y-5.3
X3.9Y-5.3
X4.0Y-5.3
X4.5Y-2.5
X4.6Y-2.5
X4.7Y-2.5
X4.8Y-2.5
T7
X3.8031Y-2.8513
X4.0Y-2.8513
X4.1969Y-2.8513
X4.3031Y-4.9487
X4.5Y-4.9487
X4.6969Y-4.9487
X5.9513Y-2.8031
X5.9513Y-3.0
X5.9513Y-3.1969
T0
M30
