%TF.GenerationSoftware,KiCad,Pcbnew,7.0.7*%
%TF.CreationDate,2024-10-12T22:05:23+05:30*%
%TF.ProjectId,MARS,4d415253-2e6b-4696-9361-645f70636258,rev?*%
%TF.SameCoordinates,Original*%
%TF.FileFunction,Soldermask,Bot*%
%TF.FilePolarity,Negative*%
%FSLAX46Y46*%
G04 Gerber Fmt 4.6, Leading zero omitted, Abs format (unit mm)*
G04 Created by KiCad (PCBNEW 7.0.7) date 2024-10-12 22:05:23*
%MOMM*%
%LPD*%
G01*
G04 APERTURE LIST*
G04 Aperture macros list*
%AMRoundRect*
0 Rectangle with rounded corners*
0 $1 Rounding radius*
0 $2 $3 $4 $5 $6 $7 $8 $9 X,Y pos of 4 corners*
0 Add a 4 corners polygon primitive as box body*
4,1,4,$2,$3,$4,$5,$6,$7,$8,$9,$2,$3,0*
0 Add four circle primitives for the rounded corners*
1,1,$1+$1,$2,$3*
1,1,$1+$1,$4,$5*
1,1,$1+$1,$6,$7*
1,1,$1+$1,$8,$9*
0 Add four rect primitives between the rounded corners*
20,1,$1+$1,$2,$3,$4,$5,0*
20,1,$1+$1,$4,$5,$6,$7,0*
20,1,$1+$1,$6,$7,$8,$9,0*
20,1,$1+$1,$8,$9,$2,$3,0*%
G04 Aperture macros list end*
%ADD10C,1.800000*%
%ADD11R,1.800000X1.800000*%
%ADD12C,1.600000*%
%ADD13O,1.600000X1.600000*%
%ADD14RoundRect,0.250000X0.750000X1.550000X-0.750000X1.550000X-0.750000X-1.550000X0.750000X-1.550000X0*%
%ADD15O,2.000000X3.600000*%
%ADD16R,1.700000X1.700000*%
%ADD17O,1.700000X1.700000*%
%ADD18RoundRect,0.250000X1.550000X-0.750000X1.550000X0.750000X-1.550000X0.750000X-1.550000X-0.750000X0*%
%ADD19O,3.600000X2.000000*%
%ADD20RoundRect,0.250000X-0.750000X-1.550000X0.750000X-1.550000X0.750000X1.550000X-0.750000X1.550000X0*%
%ADD21R,2.000000X1.905000*%
%ADD22O,2.000000X1.905000*%
%ADD23C,2.000000*%
G04 APERTURE END LIST*
D10*
%TO.C,D3*%
X88900000Y-76200000D03*
D11*
X86360000Y-76200000D03*
%TD*%
D10*
%TO.C,D2*%
X81400000Y-76200000D03*
D11*
X78860000Y-76200000D03*
%TD*%
D10*
%TO.C,D1*%
X73900000Y-76200000D03*
D11*
X71360000Y-76200000D03*
%TD*%
D12*
%TO.C,R6*%
X134620000Y-158750000D03*
D13*
X134620000Y-171450000D03*
%TD*%
D14*
%TO.C,J3*%
X119300000Y-125697500D03*
D15*
X114300000Y-125697500D03*
X109300000Y-125697500D03*
%TD*%
D16*
%TO.C,R8*%
X153105000Y-162575000D03*
D17*
X153105000Y-165115000D03*
X153105000Y-167655000D03*
%TD*%
D12*
%TO.C,R1*%
X81280000Y-39370000D03*
D13*
X81280000Y-26670000D03*
%TD*%
D16*
%TO.C,L1*%
X63500000Y-170180000D03*
D17*
X63500000Y-167640000D03*
X63500000Y-165100000D03*
%TD*%
D12*
%TO.C,R5*%
X133350000Y-39370000D03*
D13*
X133350000Y-26670000D03*
%TD*%
D12*
%TO.C,R2*%
X83820000Y-158750000D03*
D13*
X83820000Y-171450000D03*
%TD*%
D18*
%TO.C,J4*%
X151162500Y-81200000D03*
D19*
X151162500Y-76200000D03*
X151162500Y-71200000D03*
%TD*%
D20*
%TO.C,J2*%
X96600000Y-72422500D03*
D15*
X101600000Y-72422500D03*
X106600000Y-72422500D03*
%TD*%
D21*
%TO.C,R3*%
X142240000Y-33020000D03*
D22*
X142240000Y-30480000D03*
X142240000Y-27940000D03*
%TD*%
D16*
%TO.C,R7*%
X152400000Y-27955000D03*
D17*
X152400000Y-30495000D03*
X152400000Y-33035000D03*
%TD*%
D16*
%TO.C,L2*%
X63500000Y-38100000D03*
D17*
X63500000Y-35560000D03*
X63500000Y-33020000D03*
%TD*%
D23*
%TO.C,U2*%
X114300000Y-63500000D03*
X116840000Y-63500000D03*
X119380000Y-63500000D03*
X121920000Y-63500000D03*
%TD*%
%TO.C,RP1*%
X86360000Y-106680000D03*
X88900000Y-106680000D03*
X91440000Y-106680000D03*
X93980000Y-106680000D03*
X96520000Y-106680000D03*
X99060000Y-106680000D03*
X101600000Y-106680000D03*
X104140000Y-106680000D03*
X106680000Y-106680000D03*
X109220000Y-106680000D03*
X111760000Y-106680000D03*
X114300000Y-106680000D03*
X116840000Y-106680000D03*
X119380000Y-106680000D03*
X121920000Y-106680000D03*
X124460000Y-106680000D03*
X127000000Y-106680000D03*
X129540000Y-106680000D03*
X132080000Y-106680000D03*
X134620000Y-106680000D03*
X134620000Y-88900000D03*
X132080000Y-88900000D03*
X129540000Y-88900000D03*
X127000000Y-88900000D03*
X124460000Y-88900000D03*
X121920000Y-88900000D03*
X119380000Y-88900000D03*
X116840000Y-88900000D03*
X114300000Y-88900000D03*
X111760000Y-88900000D03*
X109220000Y-88900000D03*
X106680000Y-88900000D03*
X104140000Y-88900000D03*
X101600000Y-88900000D03*
X99060000Y-88900000D03*
X96520000Y-88900000D03*
X93980000Y-88900000D03*
X91440000Y-88900000D03*
X88900000Y-88900000D03*
X86360000Y-88900000D03*
%TD*%
D21*
%TO.C,R4*%
X144780000Y-167640000D03*
D22*
X144780000Y-165100000D03*
X144780000Y-162560000D03*
%TD*%
D21*
%TO.C,L3*%
X73660000Y-33020000D03*
D22*
X73660000Y-35560000D03*
X73660000Y-38100000D03*
%TD*%
D21*
%TO.C,L4*%
X73660000Y-165100000D03*
D22*
X73660000Y-167640000D03*
X73660000Y-170180000D03*
%TD*%
D16*
%TO.C,J1*%
X75495000Y-116835000D03*
D17*
X75495000Y-114295000D03*
X75495000Y-111755000D03*
X75495000Y-109215000D03*
X75495000Y-106675000D03*
%TD*%
D23*
%TO.C,U1*%
X101600000Y-134620000D03*
X99060000Y-134620000D03*
X96520000Y-134620000D03*
X93980000Y-134620000D03*
%TD*%
M02*
